<?xml version="1.0" standalone="no"?>
<!DOCTYPE svg PUBLIC "-//W3C//DTD SVG 20010904//EN"
 "http://www.w3.org/TR/2001/REC-SVG-20010904/DTD/svg10.dtd">
<svg version="1.0" xmlns="http://www.w3.org/2000/svg"
 width="700.000000pt" height="700.000000pt" viewBox="0 0 700.000000 700.000000"
 preserveAspectRatio="xMidYMid meet">
<metadata>
Created by potrace 1.11, written by Peter Selinger 2001-2013
</metadata>
<g transform="translate(0.000000,700.000000) scale(0.100000,-0.100000)"
fill="#000000" stroke="none">
<path d="M3124 6603 c7 -23 -8 -41 -19 -23 -5 8 -12 7 -23 -2 -12 -10 -14 -10
-8 0 5 8 0 12 -14 12 -12 0 -18 -4 -15 -10 3 -5 1 -10 -4 -10 -6 0 -11 5 -11
11 0 8 -5 7 -16 -2 -13 -10 -17 -10 -24 2 -8 12 -11 11 -23 -5 -11 -15 -16
-16 -22 -6 -6 9 -4 11 5 5 9 -5 11 -4 6 4 -9 15 -29 3 -23 -14 4 -8 -4 -11
-24 -9 -18 2 -28 0 -24 -6 4 -6 -3 -6 -20 0 -17 7 -24 7 -20 0 9 -14 -8 -12
-24 3 -12 10 -13 9 -7 -7 5 -15 4 -17 -7 -8 -10 9 -17 8 -27 -1 -7 -6 -10 -7
-7 -2 3 6 -3 11 -13 11 -18 0 -18 -1 -2 -20 17 -19 17 -19 -8 -3 -31 21 -47
22 -30 2 11 -13 10 -14 -5 -9 -13 5 -16 4 -11 -4 4 -8 2 -10 -8 -6 -8 3 -13
13 -10 22 3 9 -1 7 -8 -6 -11 -18 -16 -20 -27 -10 -11 11 -12 10 -6 0 5 -9 1
-12 -11 -10 -11 2 -18 -2 -16 -10 2 -10 -2 -10 -18 -2 -17 9 -20 8 -20 -7 0
-15 -2 -16 -10 -3 -8 12 -10 12 -10 1 0 -11 -3 -11 -17 0 -10 7 -15 9 -10 4
12 -14 -45 -46 -60 -33 -10 8 -13 6 -13 -8 0 -16 -2 -17 -10 -4 -5 8 -10 10
-10 4 0 -6 -15 -10 -34 -9 -29 2 -34 0 -31 -16 2 -11 0 -17 -5 -14 -4 3 -11
-1 -14 -7 -3 -7 -3 -2 0 12 4 21 3 22 -6 8 -6 -9 -19 -15 -29 -13 -12 2 -18
-2 -17 -13 1 -12 -6 -17 -21 -16 -13 1 -23 -4 -23 -10 0 -6 -4 -5 -9 3 -10 15
-31 7 -31 -12 0 -7 4 -6 11 3 7 10 9 11 7 2 -2 -8 -6 -12 -10 -10 -3 2 -16 -6
-29 -17 -12 -11 -19 -15 -16 -9 4 7 0 14 -8 17 -9 4 -12 1 -9 -7 3 -7 -2 -16
-11 -20 -9 -3 -13 -11 -9 -17 4 -8 3 -9 -5 -5 -6 4 -8 12 -5 18 4 7 2 8 -5 4
-6 -4 -19 -2 -28 6 -14 11 -16 11 -8 -2 14 -22 15 -39 3 -47 -6 -3 -8 -1 -4 5
3 6 2 13 -4 17 -5 3 -10 1 -10 -5 0 -6 -4 -9 -9 -5 -6 3 -15 -3 -21 -14 -6
-12 -16 -18 -25 -15 -10 4 -15 0 -15 -12 0 -16 -1 -16 -15 2 -14 18 -14 18
-10 -4 4 -21 2 -22 -12 -10 -12 9 -15 9 -9 1 4 -8 2 -13 -4 -13 -6 0 -8 -6 -4
-12 4 -7 4 -10 -1 -6 -4 4 -14 3 -22 -3 -7 -6 -22 -9 -34 -6 -17 4 -18 3 -8
-9 10 -12 9 -13 -7 -7 -17 6 -17 5 -5 -10 12 -15 12 -17 -2 -12 -8 4 -18 1
-22 -5 -5 -8 -11 -8 -21 1 -9 7 -14 8 -13 3 3 -19 -1 -34 -11 -34 -5 0 -7 8
-3 18 3 11 0 9 -12 -6 -13 -17 -20 -20 -30 -12 -9 8 -15 8 -20 0 -4 -6 -1 -9
6 -8 6 2 14 -3 17 -11 3 -10 0 -12 -11 -8 -9 3 -21 -1 -27 -9 -7 -8 -9 -14 -4
-14 5 0 2 -5 -7 -10 -9 -5 -26 -8 -38 -5 -18 3 -20 1 -11 -15 9 -16 7 -18 -10
-15 -21 4 -45 -26 -32 -40 4 -4 -3 -2 -16 4 -12 7 -22 8 -21 4 1 -4 1 -14 0
-22 -1 -11 -4 -11 -18 0 -15 13 -15 12 -4 -9 12 -22 11 -23 -8 -13 -17 9 -19
8 -16 -7 2 -15 -2 -18 -20 -17 -18 3 -22 -1 -18 -19 3 -15 2 -17 -5 -8 -7 11
-17 7 -43 -19 -19 -17 -28 -29 -21 -25 6 4 12 3 12 -2 0 -16 -33 -24 -43 -10
-6 9 -7 8 -3 -5 4 -14 0 -20 -15 -24 -12 -4 -18 -11 -15 -20 4 -9 0 -13 -12
-11 -11 2 -16 -3 -14 -14 2 -12 -4 -18 -15 -18 -10 0 -25 -5 -33 -11 -12 -9
-11 -10 5 -5 19 6 19 5 2 -8 -11 -8 -26 -12 -35 -9 -14 4 -14 3 -3 -5 8 -6 21
-8 30 -6 9 2 1 -3 -18 -12 -27 -12 -31 -18 -20 -25 8 -5 9 -9 3 -9 -5 0 -16 6
-23 13 -11 10 -13 9 -7 -1 4 -7 0 -15 -10 -19 -16 -6 -15 -7 2 -20 21 -15 11
-17 -16 -3 -16 9 -18 8 -13 -6 5 -13 3 -15 -8 -9 -12 7 -12 6 1 -11 8 -10 10
-16 5 -11 -9 7 -47 -42 -40 -53 2 -4 -5 -6 -17 -6 -12 1 -23 -6 -26 -14 -5
-13 -3 -13 14 0 18 14 18 14 5 -2 -7 -10 -20 -18 -27 -18 -8 0 -14 -7 -14 -16
0 -10 -6 -14 -15 -10 -8 3 -14 2 -14 -2 3 -20 -2 -33 -11 -27 -6 3 -7 -1 -4
-10 5 -11 0 -18 -14 -22 -12 -3 -18 -11 -16 -18 3 -7 0 -16 -7 -21 -8 -5 -10
-3 -4 6 5 9 4 11 -4 6 -9 -6 -9 -11 0 -22 9 -12 9 -13 -3 -9 -12 5 -15 0 -13
-24 1 -17 -1 -28 -6 -25 -5 3 -7 10 -4 15 4 5 2 9 -3 9 -10 0 -47 -38 -47 -49
0 -3 -4 -5 -8 -3 -4 1 -2 -8 4 -20 12 -22 11 -22 -6 -8 -17 14 -18 14 -6 -9
10 -17 10 -22 1 -16 -9 5 -10 1 -5 -16 7 -24 7 -24 -10 -4 -9 11 -14 15 -11 9
3 -7 -1 -15 -10 -18 -13 -5 -14 -9 -3 -22 11 -13 9 -14 -15 -10 -24 4 -26 3
-15 -10 10 -13 10 -17 -2 -25 -12 -7 -12 -9 1 -9 8 -1 4 -5 -9 -11 -16 -6 -21
-14 -17 -25 5 -12 2 -15 -10 -10 -14 5 -15 4 -4 -9 13 -15 3 -21 -25 -15 -5 1
-7 -2 -3 -6 4 -4 3 -13 -3 -21 -6 -7 -8 -13 -3 -13 5 0 2 -5 -6 -11 -13 -10
-13 -10 0 -6 10 3 16 -2 16 -14 0 -13 -4 -15 -12 -8 -9 7 -13 4 -16 -13 -2
-13 -9 -22 -16 -20 -10 2 -10 -2 -2 -19 7 -11 9 -23 6 -27 -3 -3 -6 -1 -6 5 0
5 -6 10 -14 10 -8 0 -12 -6 -9 -13 2 -6 -1 -15 -7 -19 -8 -5 -8 -10 0 -20 16
-19 -7 -30 -28 -13 -16 12 -16 11 -2 -7 8 -11 20 -24 25 -28 6 -5 0 -6 -11 -2
-18 5 -21 2 -17 -17 3 -14 -4 -32 -17 -45 -11 -13 -16 -23 -10 -23 6 0 8 -5 5
-10 -4 -6 -11 -8 -16 -5 -5 4 -9 -1 -9 -10 0 -10 5 -13 12 -9 10 6 10 5 1 -8
-7 -8 -11 -17 -8 -20 3 -3 -3 -11 -12 -19 -16 -13 -17 -12 -5 3 10 12 10 18 1
24 -7 4 -9 3 -5 -4 3 -6 2 -14 -4 -17 -8 -5 -7 -12 2 -23 11 -14 10 -15 -6 -9
-15 6 -17 5 -7 -7 9 -11 8 -15 -4 -20 -9 -3 -14 -10 -11 -15 4 -5 -1 -17 -10
-25 -8 -9 -12 -16 -7 -16 5 0 14 5 19 10 7 7 11 6 11 -4 0 -8 -4 -13 -9 -10
-4 3 -8 0 -8 -6 0 -6 -4 -8 -10 -5 -6 4 -6 -3 0 -21 10 -25 9 -26 -6 -13 -16
13 -16 12 -5 -8 10 -19 9 -23 -4 -23 -8 0 -15 -5 -15 -11 0 -5 4 -8 8 -5 5 3
9 -2 9 -10 0 -8 -6 -13 -13 -10 -9 3 -10 -3 -4 -24 7 -23 5 -28 -6 -23 -8 3
-14 0 -14 -6 0 -6 6 -11 13 -12 6 0 2 -5 -10 -11 -21 -10 -21 -11 -5 -27 10
-9 13 -12 6 -8 -7 4 -15 3 -19 -3 -3 -5 -1 -10 4 -10 6 0 11 -5 11 -11 0 -5
-4 -8 -9 -5 -7 5 -13 -46 -12 -108 0 -18 0 -18 -14 0 -12 17 -13 16 -8 -10 4
-18 1 -31 -8 -37 -10 -6 -10 -9 -1 -9 6 0 12 -5 12 -11 0 -5 -4 -8 -8 -5 -5 3
-9 -1 -9 -9 0 -8 5 -11 11 -8 6 4 5 -1 -3 -11 -12 -14 -13 -21 -2 -38 9 -15 9
-18 0 -13 -8 6 -10 -1 -7 -23 3 -19 0 -28 -7 -26 -6 3 -11 -6 -12 -18 -2 -18
0 -20 7 -8 8 12 10 10 10 -8 0 -13 -4 -20 -10 -17 -11 7 -12 4 -14 -59 0 -24
3 -42 8 -39 5 4 6 0 1 -7 -11 -18 -13 -60 -3 -66 5 -3 5 -11 1 -17 -11 -17
-11 -288 -1 -310 6 -11 6 -23 1 -30 -13 -17 -10 -36 7 -47 13 -8 13 -10 -1
-10 -20 0 -19 -47 1 -60 14 -9 6 -15 -15 -10 -5 1 -5 -4 2 -11 6 -6 9 -17 7
-24 -3 -7 0 -16 7 -21 7 -4 10 -3 5 4 -3 6 -3 13 1 15 5 3 9 -8 9 -24 1 -16
-2 -27 -6 -24 -3 2 -7 -2 -7 -10 0 -8 4 -12 9 -9 5 3 7 -6 4 -20 -3 -14 0 -26
5 -26 5 0 9 -5 9 -11 0 -5 -4 -8 -9 -4 -5 3 -13 0 -17 -6 -4 -7 -3 -9 4 -5 6
3 13 2 16 -3 4 -5 2 -12 -3 -15 -15 -10 -6 -37 19 -56 17 -13 20 -19 10 -25
-9 -6 -11 -4 -5 6 5 8 4 10 0 6 -16 -14 -15 -39 1 -33 9 3 12 1 9 -5 -4 -5 -1
-17 6 -25 10 -12 9 -13 -7 -8 -17 5 -18 5 -2 -8 15 -13 15 -15 0 -26 -15 -10
-15 -11 -1 -6 20 6 34 -36 16 -48 -9 -6 -8 -8 3 -9 8 -1 19 -1 25 1 5 1 1 -9
-10 -21 -17 -19 -17 -21 -3 -16 15 5 16 2 8 -18 -6 -16 -6 -27 2 -31 6 -4 8
-3 4 4 -3 6 -2 13 3 16 10 7 9 -13 -2 -31 -5 -8 -1 -11 15 -8 23 4 23 4 -2
-15 -23 -18 -23 -19 -4 -16 13 3 21 -1 21 -10 0 -8 -4 -14 -9 -14 -5 0 -7 -4
-3 -10 3 -5 13 -6 23 -3 13 4 12 1 -4 -12 -20 -18 -20 -19 -2 -37 24 -24 36
-23 13 2 -10 11 -13 20 -8 20 12 0 25 -25 28 -52 1 -15 -1 -15 -13 -5 -13 10
-14 9 -4 -9 6 -12 8 -25 4 -30 -4 -5 1 -2 11 5 15 12 17 12 11 -4 -5 -12 -4
-16 3 -12 6 4 13 -4 15 -18 3 -13 1 -22 -3 -19 -5 3 -9 1 -9 -5 0 -5 5 -13 10
-16 8 -5 7 -12 -2 -23 -9 -11 -9 -13 -1 -9 14 9 36 -26 25 -38 -4 -5 -1 -5 6
-1 11 6 10 12 -2 30 -11 17 -11 23 -2 23 13 0 16 -13 16 -65 0 -17 4 -32 10
-32 6 0 8 5 4 12 -4 7 -3 8 4 4 6 -4 9 -13 5 -21 -3 -8 0 -15 7 -15 10 0 10
-3 1 -14 -8 -10 -9 -16 -1 -21 6 -3 8 -11 5 -16 -4 -5 -1 -9 5 -9 6 0 8 -5 4
-12 -5 -8 -2 -9 10 -5 14 5 17 3 12 -8 -3 -8 -1 -15 4 -15 6 0 10 -5 10 -11 0
-5 -4 -8 -8 -5 -5 3 -9 -1 -9 -9 0 -10 4 -12 12 -5 12 10 25 4 25 -12 0 -5 -6
-6 -12 -3 -7 4 -5 0 6 -9 11 -9 16 -21 12 -32 -6 -15 -4 -15 11 -3 9 8 14 9
10 2 -4 -7 0 -13 10 -16 17 -4 17 -5 0 -6 -10 0 -15 -6 -12 -11 4 -6 11 -7 17
-4 6 4 8 -1 3 -16 -5 -15 -4 -20 4 -16 11 7 14 -1 14 -35 0 -12 6 -15 21 -11
18 5 19 3 8 -10 -10 -13 -9 -18 5 -29 9 -8 14 -9 10 -2 -4 6 -3 14 2 17 11 7
9 -13 -3 -33 -6 -10 -5 -12 2 -7 7 4 12 1 12 -6 0 -9 3 -9 10 2 8 12 10 9 11
-12 1 -16 3 -32 4 -38 1 -5 3 -13 4 -16 0 -4 9 0 18 7 11 10 14 10 9 2 -4 -8
-2 -13 6 -13 8 0 9 -3 3 -8 -5 -4 -11 -13 -13 -21 -3 -12 0 -12 12 -1 12 9 16
9 16 1 0 -7 5 -9 13 -5 9 6 9 4 -1 -8 -10 -13 -10 -17 0 -22 10 -5 10 -7 1
-12 -7 -3 -13 -10 -13 -16 0 -6 7 -5 16 3 14 11 19 10 34 -8 10 -12 21 -19 25
-15 5 4 5 2 1 -5 -4 -7 -12 -10 -20 -7 -7 3 -13 -1 -13 -8 0 -8 11 -13 26 -13
19 0 25 -5 23 -18 -2 -10 3 -17 12 -17 8 0 18 -9 21 -20 7 -22 25 -28 25 -8 0
6 3 8 6 5 4 -4 1 -13 -5 -21 -17 -20 -5 -36 25 -36 15 0 23 -4 19 -10 -4 -6
-12 -7 -18 -3 -7 4 -6 0 2 -10 7 -9 20 -17 28 -17 12 0 13 -3 4 -14 -10 -12
-8 -13 8 -9 17 4 21 1 21 -18 0 -20 2 -21 11 -9 9 12 10 11 6 -8 -3 -12 -1
-20 3 -17 5 3 11 1 15 -5 3 -5 1 -10 -6 -10 -7 0 -9 -3 -6 -6 4 -4 13 -1 22 6
13 11 15 8 15 -15 0 -27 1 -27 18 -12 15 14 19 15 19 2 0 -8 -4 -12 -9 -9 -17
11 -7 -12 11 -26 11 -7 18 -17 15 -22 -3 -5 -2 -8 3 -7 22 4 32 -3 43 -30 8
-21 17 -28 31 -26 12 2 23 -4 30 -18 10 -21 10 -21 -5 -3 -9 11 -16 15 -16 9
0 -17 27 -36 35 -23 3 5 11 10 17 10 7 0 7 -4 0 -13 -8 -9 -8 -17 0 -27 8 -12
9 -12 4 2 -4 15 -3 16 14 6 10 -7 17 -15 14 -19 -2 -4 3 -10 12 -13 8 -3 12
-11 8 -17 -4 -8 -3 -9 4 -5 19 12 35 -4 21 -20 -10 -12 -9 -13 4 -8 10 3 20
-2 27 -16 9 -17 14 -19 26 -9 11 9 14 9 14 0 0 -7 6 -9 13 -5 9 6 9 4 0 -7
-16 -16 -17 -29 -2 -29 5 0 7 5 4 10 -9 15 4 12 22 -5 8 -8 19 -12 25 -9 7 4
8 2 4 -4 -4 -7 -1 -12 8 -12 8 0 16 -5 18 -10 2 -6 13 -12 24 -12 11 -1 21 -8
21 -15 0 -10 -4 -10 -16 -1 -14 10 -14 10 -3 -2 15 -18 34 -20 44 -5 5 6 8 6
8 -2 0 -7 -8 -17 -17 -23 -16 -9 -15 -10 5 -5 15 4 22 2 22 -7 0 -10 3 -9 10
2 7 11 10 11 10 2 0 -7 4 -10 10 -7 5 3 10 -1 10 -10 0 -10 -5 -13 -12 -9 -7
4 -8 3 -4 -4 5 -9 13 -9 27 -1 12 6 23 8 27 5 3 -3 0 -6 -7 -6 -9 0 -9 -4 1
-14 9 -10 15 -11 20 -2 5 6 8 2 8 -11 0 -13 5 -23 11 -23 5 0 7 5 3 11 -3 6 5
4 18 -5 14 -9 28 -13 32 -9 4 4 4 0 1 -9 -5 -13 -2 -15 14 -11 13 3 21 1 21
-6 0 -7 -5 -9 -12 -5 -7 4 -8 3 -4 -4 4 -6 14 -8 23 -5 11 4 14 3 9 -5 -5 -8
-1 -10 10 -5 11 4 15 3 10 -5 -3 -6 -2 -14 4 -17 6 -4 10 -3 9 2 -4 23 3 25
14 3 8 -16 21 -25 36 -25 13 0 30 -9 38 -20 15 -20 15 -20 9 2 -4 12 -2 24 3
28 6 3 8 0 5 -8 -3 -8 0 -18 5 -22 6 -3 9 -11 6 -16 -4 -5 -1 -9 4 -9 6 0 11
4 11 8 0 4 11 8 24 8 14 0 22 -4 20 -8 -3 -4 0 -8 5 -8 6 0 11 -7 11 -15 0
-18 21 -20 39 -2 10 10 11 9 6 -5 -4 -11 -2 -18 4 -18 6 0 11 6 11 13 1 6 6 2
13 -11 10 -17 16 -19 25 -10 9 9 13 7 18 -5 3 -9 10 -17 16 -17 5 0 6 6 2 13
-4 6 2 3 14 -7 12 -11 22 -16 22 -11 0 4 7 2 15 -5 8 -6 20 -8 26 -4 8 5 9 3
4 -6 -6 -10 -4 -12 8 -7 12 4 14 2 10 -11 -6 -14 -4 -15 9 -4 13 10 16 9 20
-6 4 -15 14 -18 52 -16 44 2 45 2 35 -19 -9 -18 -9 -20 1 -10 8 7 20 9 35 3
13 -5 26 -6 29 -3 3 4 18 -4 33 -18 21 -18 23 -18 10 -3 -14 17 -15 21 -2 21
8 0 15 -4 15 -9 0 -4 5 -8 11 -8 5 0 7 5 3 12 -4 7 -3 8 4 4 7 -4 12 -13 12
-19 0 -17 40 -19 59 -4 8 7 12 7 9 2 -4 -6 3 -17 14 -24 18 -11 20 -11 15 3
-4 10 -1 13 9 9 7 -3 14 -9 14 -14 0 -5 5 -9 11 -9 5 0 8 4 5 8 -3 5 1 9 9 9
8 0 12 -4 9 -9 -3 -4 -1 -8 5 -8 5 0 13 4 16 10 3 5 12 10 18 10 7 0 6 -4 -3
-10 -8 -5 -11 -12 -7 -16 3 -4 13 -1 22 6 13 11 14 10 9 -4 -7 -19 6 -21 25
-3 11 10 13 9 7 -1 -5 -7 -1 -12 9 -12 9 0 13 5 9 11 -3 6 6 3 22 -7 15 -11
25 -14 21 -7 -4 6 -2 15 4 19 7 4 9 3 6 -3 -4 -6 1 -17 10 -24 15 -12 16 -12
10 4 -4 11 -3 16 4 12 5 -4 16 -2 23 4 9 8 13 7 13 -4 0 -8 -4 -12 -8 -9 -4 2
-10 1 -13 -4 -3 -5 7 -9 22 -9 15 -1 38 -4 50 -7 18 -4 22 -2 18 9 -3 8 -1 15
4 15 6 0 10 -6 10 -13 0 -14 176 -17 199 -3 9 6 12 5 8 -1 -4 -6 39 -9 121 -9
99 1 130 4 140 16 12 13 13 13 8 -2 -4 -14 1 -16 27 -13 45 4 68 15 60 29 -3
6 0 5 8 -2 12 -11 12 -14 -1 -22 -10 -6 -11 -10 -3 -10 7 0 19 12 28 28 11 19
14 21 10 6 -4 -14 -1 -21 9 -21 9 0 13 5 9 10 -3 5 4 6 17 2 13 -4 20 -3 17 2
-4 5 0 10 8 10 8 0 12 -4 9 -8 -2 -4 1 -11 7 -15 8 -5 9 -3 4 6 -6 10 -4 12
10 6 16 -6 16 -4 4 10 -13 16 -12 16 8 6 16 -9 23 -9 26 1 4 9 6 9 6 0 1 -7 6
-13 12 -13 5 0 7 6 3 13 -5 7 0 6 11 -3 17 -14 18 -13 12 2 -5 15 -2 16 18 8
16 -6 27 -6 31 2 5 7 2 8 -7 3 -12 -7 -12 -5 -1 6 11 12 14 12 22 0 7 -12 12
-12 32 1 17 11 29 13 41 6 12 -6 17 -5 17 3 0 9 3 9 14 0 11 -9 16 -9 22 0 4
8 3 9 -4 5 -7 -4 -12 -3 -12 2 0 4 23 14 51 21 43 11 53 11 60 0 6 -10 9 -7 9
10 0 23 1 24 13 6 10 -13 16 -15 21 -6 4 6 12 9 17 6 5 -3 6 1 2 11 -5 13 -2
15 17 9 17 -6 21 -4 14 6 -6 10 -3 10 11 -1 17 -13 18 -13 13 0 -4 11 0 16 12
16 11 0 16 -6 13 -16 -2 -8 3 -5 13 8 9 12 25 22 36 22 12 0 17 4 12 12 -5 7
-3 8 7 2 21 -13 40 -14 32 -1 -4 7 0 8 11 4 13 -5 19 -1 23 13 3 11 10 20 15
20 5 0 6 -4 3 -10 -10 -17 7 -11 22 7 8 10 11 12 7 4 -4 -9 -2 -12 7 -9 8 3
14 10 14 16 0 5 4 14 9 19 5 5 6 2 1 -6 -5 -9 -3 -12 6 -9 8 3 13 11 11 17 -1
7 2 10 8 6 5 -3 19 -8 29 -10 15 -3 18 0 14 13 -6 15 -4 15 9 4 14 -11 16 -10
11 10 -3 13 -1 19 4 13 13 -16 41 -11 60 10 14 15 15 16 1 6 -13 -9 -18 -9
-24 1 -4 7 -4 10 1 6 4 -4 14 -3 21 3 10 9 15 7 20 -4 5 -13 9 -14 19 -4 7 7
11 15 8 20 -2 4 0 7 6 7 5 0 12 -6 14 -12 3 -7 6 -3 6 10 1 19 5 22 22 17 15
-5 19 -4 14 4 -4 8 1 10 18 7 23 -4 25 -2 21 22 -3 21 -2 23 6 12 5 -8 10 -11
10 -6 0 5 7 3 15 -4 17 -14 21 0 4 17 -9 9 -6 11 12 7 17 -4 20 -3 11 4 -11 7
-11 10 2 15 9 4 16 2 16 -4 0 -6 5 -7 10 -4 6 4 7 11 4 17 -4 5 4 4 17 -3 21
-11 22 -10 12 2 -8 10 -9 19 -1 29 8 12 9 12 4 -2 -3 -10 -1 -18 4 -18 6 0 10
8 11 18 0 10 3 12 6 5 7 -20 23 -15 16 5 -6 15 -5 16 12 2 10 -8 16 -10 12 -4
-3 6 0 19 7 29 10 14 15 15 21 5 6 -9 4 -11 -5 -5 -9 5 -11 4 -6 -4 11 -17 37
6 29 25 -3 8 0 14 6 14 6 0 11 -5 11 -12 0 -6 3 -8 8 -4 4 4 7 11 7 15 0 3 10
19 23 35 12 16 22 25 22 21 0 -5 -8 -18 -17 -29 -16 -19 -16 -19 -1 -7 9 7 22
10 28 6 6 -4 10 -3 9 2 -1 4 -1 16 0 27 1 14 4 16 14 7 11 -8 18 -6 33 11 10
12 13 18 7 14 -9 -5 -11 -2 -7 9 5 12 9 13 20 4 11 -9 14 -8 14 5 0 9 3 16 8
17 24 2 45 8 50 15 4 4 -1 4 -10 1 -10 -4 -18 -2 -18 3 0 6 5 10 11 10 5 0 8
4 4 9 -3 5 0 13 6 17 7 4 9 3 6 -3 -4 -6 0 -14 9 -17 8 -3 13 -2 10 3 -10 15
33 61 51 54 13 -5 15 -2 10 12 -6 15 -5 16 8 5 13 -11 14 -10 9 4 -5 12 -2 15
10 10 15 -6 22 11 16 41 -1 6 4 4 11 -3 18 -17 34 -15 19 3 -10 13 -9 15 8 15
12 0 24 5 28 12 4 7 3 8 -4 4 -7 -4 -12 -2 -12 3 0 6 7 11 16 11 9 0 12 5 8
12 -5 8 -1 8 12 -2 10 -8 16 -11 12 -6 -4 5 3 17 15 28 l22 19 -22 -10 c-33
-17 -42 -12 -10 5 15 8 33 12 40 8 6 -5 5 1 -3 11 -14 17 -13 18 2 12 12 -4
15 -2 11 9 -4 10 0 12 13 7 17 -6 17 -5 5 10 -12 15 -12 17 3 11 12 -5 19 0
23 15 3 11 10 21 15 21 5 0 6 6 2 13 -5 7 -1 7 12 -3 10 -8 16 -11 12 -6 -4 5
8 24 27 42 34 33 47 61 23 49 -7 -4 7 12 32 35 25 23 39 39 31 35 -10 -6 -12
-4 -7 4 5 7 15 10 23 6 14 -5 14 -3 2 12 -12 14 -12 16 0 8 11 -6 13 -4 8 8
-4 10 -2 16 5 14 5 -1 12 6 13 16 2 11 7 22 11 25 4 4 4 -1 1 -10 -3 -10 -1
-20 6 -24 7 -4 9 -3 4 1 -4 5 1 17 10 28 10 11 13 17 6 14 -8 -5 -10 1 -7 20
3 15 8 30 11 33 3 3 3 -5 0 -17 -6 -28 -3 -29 23 -3 18 18 18 20 3 20 -15 0
-16 2 -3 9 8 6 18 7 22 5 4 -3 5 2 2 10 -3 9 -1 16 6 16 6 0 8 5 4 12 -5 8 -2
9 11 4 16 -6 16 -4 4 11 -12 14 -12 16 0 8 11 -6 13 -4 8 9 -4 9 -3 14 2 11
16 -9 24 15 10 31 -10 12 -9 13 5 8 9 -3 16 -1 16 5 0 6 6 10 12 8 8 -1 13 10
12 32 -1 31 0 32 14 15 13 -18 14 -18 7 5 -5 15 -3 21 3 17 6 -4 8 2 5 15 -4
15 0 22 16 26 12 3 18 10 14 16 -13 22 -10 45 5 39 11 -4 13 -1 8 9 -4 8 0 5
8 -5 18 -22 21 -14 6 14 -9 17 -8 18 7 13 16 -6 17 -5 3 12 -14 17 -13 18 4
12 17 -7 17 -6 5 10 -9 11 -10 14 -1 9 7 -4 19 0 29 10 16 16 16 16 -7 10 -23
-6 -23 -6 -8 7 10 8 14 18 10 22 -4 5 1 5 11 2 10 -4 16 -3 12 2 -8 14 6 42
18 34 6 -3 7 -1 3 6 -4 6 -13 9 -19 5 -7 -3 -3 2 7 10 14 11 15 16 6 16 -9 0
-8 4 5 13 11 9 15 19 10 27 -5 9 -4 11 3 6 7 -4 13 -2 13 3 1 6 2 17 3 24 1 6
8 11 15 9 7 -1 10 2 6 8 -3 6 -11 8 -16 5 -5 -4 -9 -1 -9 4 0 6 5 11 11 11 8
0 8 4 0 14 -10 12 -8 13 11 8 21 -5 22 -4 9 11 -12 15 -12 17 3 11 9 -3 16 -1
16 5 0 6 -4 11 -8 11 -5 0 -9 7 -9 15 0 8 4 12 10 8 5 -3 7 8 5 23 -2 20 1 28
11 26 9 -2 11 3 7 14 -5 13 -3 14 6 6 10 -8 13 -5 13 14 0 13 -3 24 -6 24 -10
0 -4 35 6 37 6 1 9 -5 7 -13 -2 -8 1 -14 6 -14 5 0 8 14 7 30 -1 17 1 30 5 30
9 0 6 32 -5 49 -6 10 -4 12 5 6 10 -6 12 -4 7 9 -6 14 -3 17 10 12 14 -6 15
-5 6 5 -10 10 -9 15 5 26 15 13 15 13 -8 7 l-25 -7 25 22 c14 13 18 19 10 15
-10 -5 -8 0 4 15 20 22 20 22 0 16 -18 -6 -18 -6 -2 7 16 14 16 16 0 33 -16
18 -16 18 2 4 18 -13 19 -13 8 8 -8 14 -9 24 -2 28 6 4 8 11 5 16 -4 5 4 9 17
10 13 0 17 3 11 6 -7 2 -13 13 -13 24 0 10 6 19 13 19 8 0 7 3 -3 10 -12 7
-11 12 5 30 19 21 19 21 -1 14 -19 -7 -19 -7 0 15 16 17 17 21 4 16 -17 -7
-20 17 -3 32 4 4 5 2 1 -4 -5 -9 -2 -11 10 -6 11 4 13 8 6 11 -7 2 -9 9 -5 15
12 19 11 137 -1 137 -6 0 -3 7 6 14 10 7 15 15 12 18 -10 10 -9 288 1 292 7 3
7 5 0 5 -6 1 -10 32 -9 76 1 47 -3 75 -9 75 -6 0 -2 7 9 15 14 11 15 14 3 9
-20 -6 -34 11 -18 22 8 5 9 3 4 -6 -5 -9 -4 -11 3 -6 18 11 14 26 -5 26 -15 0
-15 2 -4 9 18 12 23 39 9 48 -7 3 -8 1 -4 -5 4 -7 2 -12 -4 -12 -7 0 -9 7 -6
17 4 9 1 20 -6 24 -9 6 -9 11 1 23 11 12 11 16 1 16 -9 0 -10 3 -1 13 8 10 7
17 -1 25 -10 10 -10 17 0 33 8 12 9 18 3 14 -6 -3 -11 -1 -11 4 0 6 5 11 12
11 6 0 8 3 4 7 -4 5 -14 0 -21 -11 -13 -18 -14 -17 -12 3 1 11 5 21 9 21 17 0
7 28 -14 37 -19 8 -20 10 -4 16 11 5 15 3 10 -5 -4 -7 -3 -8 5 -4 8 6 9 12 2
20 -6 7 -8 16 -4 20 4 4 -1 4 -12 0 -18 -7 -18 -6 -6 9 12 15 11 17 -5 18 -18
0 -18 1 1 9 11 5 14 9 8 9 -7 1 -13 6 -13 12 0 5 6 7 13 3 10 -6 10 -4 0 7
-16 16 -17 33 -1 23 7 -4 8 -3 4 5 -10 15 -29 3 -22 -15 3 -7 2 -16 -3 -18 -4
-3 -8 10 -8 29 0 19 5 35 11 35 5 0 1 7 -10 16 -10 8 -12 13 -4 9 8 -4 6 1 -4
9 -17 14 -18 16 -3 16 9 0 17 4 17 9 0 5 -11 8 -24 7 -17 -2 -23 1 -19 10 3 8
9 12 13 9 5 -3 12 -1 15 5 4 6 3 10 -2 9 -30 -5 -42 25 -18 43 6 4 2 8 -7 8
-10 0 -18 5 -18 11 0 5 6 7 13 3 9 -6 9 -4 -1 8 -10 13 -10 17 0 21 11 4 10 6
0 6 -7 1 -10 6 -6 13 4 7 3 8 -5 4 -6 -4 -9 -11 -6 -16 3 -4 -3 -14 -13 -21
-15 -13 -16 -12 -3 4 11 14 11 17 0 17 -9 0 -10 3 -4 8 18 13 17 42 -2 43 -11
0 -13 3 -5 6 6 2 9 9 6 15 -4 6 0 15 7 20 10 6 7 7 -10 3 -16 -5 -21 -4 -17 4
4 6 1 11 -6 11 -9 0 -9 3 2 10 13 8 12 10 -4 10 -15 0 -16 3 -6 15 10 12 8 16
-13 24 -23 9 -24 13 -17 46 7 31 6 34 -7 24 -8 -7 -13 -8 -12 -3 3 19 -1 35
-9 30 -5 -3 -9 1 -9 9 0 8 4 12 9 9 5 -4 4 3 -3 14 -7 12 -16 19 -20 16 -4 -2
-10 0 -13 5 -4 5 -1 13 5 17 7 4 9 3 6 -2 -3 -5 3 -10 14 -10 19 0 19 1 2 13
-9 8 -22 12 -29 9 -6 -2 -11 2 -11 10 0 7 3 11 7 9 4 -2 7 3 7 11 0 8 -6 13
-13 10 -8 -3 -16 0 -20 6 -4 7 -3 8 4 4 7 -4 12 -1 12 9 0 9 -4 13 -10 10 -9
-6 -14 8 -11 28 0 4 -5 7 -11 7 -9 0 -8 4 2 11 12 9 11 10 -6 6 -17 -3 -20 0
-18 18 1 18 -4 25 -24 30 -21 5 -23 8 -11 16 11 8 11 12 1 16 -9 3 -10 9 -2
18 7 9 6 16 -5 25 -8 7 -13 16 -10 20 3 5 -5 6 -17 2 -14 -3 -19 -1 -14 6 3 6
-2 16 -11 22 -16 10 -16 11 -1 6 10 -3 20 0 24 6 4 6 3 8 -4 4 -6 -3 -13 -2
-17 4 -4 6 -11 7 -17 4 -7 -5 -9 -1 -5 9 3 9 1 18 -6 21 -9 5 -9 7 1 12 6 3
12 10 12 16 0 7 -5 6 -14 -1 -12 -10 -17 -8 -26 8 -8 16 -8 21 2 21 7 0 -2 10
-19 23 -33 22 -66 75 -57 89 3 5 2 8 -3 7 -4 -1 -16 1 -26 6 -15 6 -16 10 -5
16 9 6 7 9 -9 9 -13 0 -23 5 -23 11 0 5 6 7 13 3 6 -4 4 2 -6 14 -11 11 -25
18 -32 15 -10 -3 -13 2 -9 21 2 15 0 26 -6 26 -6 0 -8 -4 -5 -10 3 -5 1 -10
-4 -10 -6 0 -11 9 -11 20 0 11 -6 20 -14 20 -8 0 -18 9 -21 20 -3 11 -11 20
-17 20 -6 0 -5 7 3 17 13 15 12 15 -8 4 -19 -10 -23 -9 -23 4 0 8 -5 15 -11
15 -8 0 -7 6 2 17 13 15 12 15 -9 4 -12 -6 -22 -8 -21 -4 3 21 -2 33 -15 33
-8 0 -18 5 -22 12 -5 7 -3 8 6 3 9 -5 11 -4 6 3 -4 7 -14 12 -23 12 -10 0 -14
6 -10 20 3 11 2 18 -3 15 -4 -3 -13 2 -20 10 -7 8 -17 15 -23 15 -6 0 -3 -6 8
-13 14 -11 15 -16 5 -22 -8 -5 -11 -4 -7 2 4 6 0 14 -9 17 -13 5 -14 9 -3 22
10 12 10 15 -2 12 -8 -2 -18 -7 -22 -13 -5 -6 -7 -4 -6 5 1 8 -1 23 -6 33 -6
15 -10 16 -16 5 -7 -10 -9 -9 -9 4 0 12 -5 15 -17 11 -16 -6 -17 -5 -3 12 9
11 10 16 3 11 -8 -4 -13 -2 -13 5 0 6 -8 9 -20 6 -11 -3 -17 -1 -14 4 3 5 -2
12 -10 15 -9 3 -13 11 -9 17 4 6 0 8 -10 4 -9 -3 -19 -1 -23 5 -5 7 -2 8 6 3
9 -6 11 -4 6 4 -5 7 -14 10 -21 7 -18 -7 -27 5 -15 19 8 9 6 14 -5 19 -9 3
-13 2 -10 -4 3 -6 1 -10 -4 -10 -10 0 -16 22 -12 43 1 5 -3 6 -9 2 -6 -4 -18
-1 -27 7 -14 11 -16 11 -8 -1 6 -10 4 -12 -4 -7 -7 5 -10 15 -6 23 4 12 2 13
-8 5 -11 -9 -19 -6 -37 13 -13 14 -29 25 -36 25 -15 0 -36 34 -27 44 3 3 1 6
-5 6 -7 0 -12 -5 -12 -11 0 -6 -7 -3 -16 5 -8 9 -20 13 -26 10 -6 -4 -8 2 -3
17 6 20 5 22 -6 12 -18 -18 -34 -16 -20 1 10 12 8 13 -8 9 -12 -3 -18 -10 -14
-16 3 -6 1 -7 -6 -3 -6 4 -9 11 -7 15 3 4 1 13 -5 21 -6 11 -9 12 -9 2 0 -7
-5 -10 -10 -7 -6 4 -7 11 -4 17 5 7 1 9 -9 5 -9 -3 -19 -1 -23 5 -4 7 -3 8 4
4 7 -4 12 -5 12 -2 0 3 -10 10 -21 17 -15 7 -19 8 -15 0 5 -7 1 -9 -8 -5 -9 3
-13 11 -9 17 4 6 -2 8 -15 5 -15 -4 -19 -2 -15 9 5 13 2 13 -15 4 -29 -15 -40
-14 -17 2 14 11 15 16 5 22 -9 5 -11 4 -6 -3 10 -16 -2 -15 -19 2 -8 7 -11 17
-7 21 4 5 -2 3 -13 -3 -15 -8 -22 -6 -33 6 -9 12 -11 13 -6 2 4 -8 4 -12 -1
-8 -4 4 -15 2 -24 -5 -8 -6 -4 4 9 23 13 19 17 29 8 22 -9 -7 -18 -9 -20 -5
-3 4 -4 4 -3 -2 2 -5 -8 -10 -20 -10 -19 0 -22 4 -19 25 3 14 1 20 -3 14 -5
-6 -16 -13 -26 -17 -15 -6 -16 -4 -7 13 8 16 8 18 -4 14 -8 -3 -17 0 -21 6 -4
7 -11 8 -18 2 -10 -8 -47 -13 -47 -7 0 2 8 9 17 16 11 10 14 10 9 2 -4 -8 -2
-13 4 -13 7 0 10 6 8 12 -5 15 -40 17 -50 3 -5 -6 -8 -5 -8 3 0 7 -4 11 -9 7
-5 -3 -13 0 -17 6 -4 7 -3 9 4 5 6 -3 13 -2 16 3 7 11 -13 9 -33 -3 -10 -7
-12 -3 -7 15 3 13 3 19 0 12 -4 -8 -13 -9 -30 -3 -15 6 -24 6 -24 0 0 -6 -5
-10 -11 -10 -5 0 -7 5 -4 10 3 6 -2 10 -12 10 -10 0 -24 9 -31 21 -11 16 -16
18 -28 9 -10 -9 -14 -9 -14 -1 0 6 -3 10 -7 10 -5 -1 -20 -1 -35 0 -21 1 -26
5 -22 19 5 16 5 16 -6 -1 -11 -16 -13 -16 -42 5 -18 12 -29 17 -25 11 13 -21
-22 -21 -38 0 -9 12 -13 16 -10 10 3 -7 1 -13 -4 -13 -6 0 -11 7 -11 16 0 14
-3 14 -15 4 -11 -9 -15 -9 -15 -1 0 7 -5 9 -12 5 -20 -12 -55 -10 -55 3 0 7 5
9 11 6 6 -3 8 -2 3 2 -14 16 -47 12 -47 -4 0 -10 -5 -8 -13 8 -6 13 -16 22
-22 21 -5 -2 -18 -5 -27 -8 -10 -2 -15 -9 -11 -15 3 -6 1 -7 -6 -3 -9 6 -9 11
-1 21 12 15 -5 16 -27 2 -8 -5 -13 -4 -13 2 0 6 -5 11 -11 11 -5 0 -8 -4 -4
-9 3 -6 -3 -9 -14 -8 -16 1 -18 4 -8 16 10 12 9 13 -8 5 -26 -12 -59 -11 -76
2 -16 13 -51 15 -43 2 3 -4 0 -8 -5 -8 -6 0 -11 4 -11 9 0 12 -63 9 -72 -4 -5
-6 -8 -5 -8 3 0 9 -17 12 -63 10 -34 -1 -67 1 -73 5 -6 3 -14 4 -17 1 -3 -4
-58 -6 -123 -5 -99 2 -119 -1 -137 -16 -20 -17 -21 -17 -8 0 12 15 11 17 -5
14 -11 -1 -25 -7 -33 -11 -10 -6 -12 -5 -7 2 4 7 2 12 -3 12 -6 0 -11 -7 -11
-17 0 -13 -5 -11 -21 8 -21 23 -21 23 -15 2z m872 -35 c4 -7 3 -8 -4 -4 -7 4
-12 2 -12 -5 0 -7 -3 -10 -6 -6 -6 5 3 27 11 27 2 0 7 -5 11 -12z m389 -98 c3
-5 1 -10 -4 -10 -6 0 -11 5 -11 10 0 6 2 10 4 10 3 0 8 -4 11 -10z m-1980 -50
c3 -5 1 -10 -4 -10 -6 0 -11 5 -11 10 0 6 2 10 4 10 3 0 8 -4 11 -10z m-915
-534 c0 -2 -7 -9 -15 -16 -13 -11 -14 -10 -9 4 5 14 24 23 24 12z m4120 -206
c0 -5 -5 -10 -11 -10 -5 0 -7 5 -4 10 3 6 8 10 11 10 2 0 4 -4 4 -10z m200
-194 c0 -3 -4 -8 -10 -11 -5 -3 -10 -1 -10 4 0 6 5 11 10 11 6 0 10 -2 10 -4z
m50 -78 c10 -21 10 -21 -3 -6 -8 10 -18 14 -22 10 -5 -4 -5 -1 -1 6 10 17 14
15 26 -10z m70 -83 c7 -9 8 -15 2 -15 -5 0 -12 7 -16 15 -3 8 -4 15 -2 15 2 0
9 -7 16 -15z m-4973 -30 c0 -8 -4 -12 -9 -9 -5 3 -6 10 -3 15 9 13 12 11 12
-6z m5098 -155 c3 -5 -1 -10 -10 -10 -9 0 -13 5 -10 10 3 6 8 10 10 10 2 0 7
-4 10 -10z m-5259 -115 c-8 -8 -18 -15 -22 -15 -3 0 -1 7 6 15 7 8 17 15 22
15 5 0 3 -7 -6 -15z m5661 -1091 c-3 -3 -12 -4 -19 -1 -8 3 -5 6 6 6 11 1 17
-2 13 -5z m-6011 -80 c1 -9 0 -13 -4 -10 -3 4 -7 14 -8 22 -1 9 0 13 4 10 3
-4 7 -14 8 -22z m6009 -614 c-3 -5 -11 -10 -16 -10 -6 0 -7 5 -4 10 3 6 11 10
16 10 6 0 7 -4 4 -10z m-5975 -200 c-9 -6 -9 -9 -1 -13 8 -4 8 -5 0 -3 -7 1
-13 9 -15 18 -1 11 3 15 13 11 11 -4 12 -8 3 -13z m5725 -679 c3 -5 2 -12 -3
-15 -5 -3 -9 1 -9 9 0 17 3 19 12 6z m-5480 -71 c10 -11 14 -20 9 -20 -5 0
-15 9 -22 20 -7 11 -11 20 -9 20 2 0 12 -9 22 -20z m5035 -660 c-24 -15 -36
-11 -14 4 10 8 21 12 24 10 2 -3 -2 -9 -10 -14z m-4176 -416 c9 -24 2 -26 -12
-4 -7 11 -8 20 -3 20 5 0 12 -7 15 -16z m3686 -48 c0 -3 -4 -8 -10 -11 -5 -3
-10 -1 -10 4 0 6 5 11 10 11 6 0 10 -2 10 -4z m-3173 -266 c17 13 17 13 1 -4
-16 -19 -38 -15 -38 7 0 8 4 7 9 -2 8 -13 12 -13 28 -1z m410 -192 c-3 -8 -6
-5 -6 6 -1 11 2 17 5 13 3 -3 4 -12 1 -19z m1788 -17 c3 -5 2 -12 -3 -15 -5
-3 -9 1 -9 9 0 17 3 19 12 6z m-1141 -107 c3 -8 2 -12 -4 -9 -6 3 -10 10 -10
16 0 14 7 11 14 -7z"/>
<path d="M3100 6601 c0 -6 4 -13 10 -16 6 -3 7 1 4 9 -7 18 -14 21 -14 7z"/>
<path d="M2903 6575 c0 -8 4 -12 9 -9 5 3 6 10 3 15 -9 13 -12 11 -12 -6z"/>
<path d="M2866 6568 c3 -5 10 -6 15 -3 13 9 11 12 -6 12 -8 0 -12 -4 -9 -9z"/>
<path d="M2486 6463 c-4 -11 -1 -11 14 -3 24 13 25 17 5 17 -8 0 -16 -6 -19
-14z"/>
<path d="M2195 6360 c-3 -5 -1 -10 4 -10 6 0 11 5 11 10 0 6 -2 10 -4 10 -3 0
-8 -4 -11 -10z"/>
<path d="M1924 6222 c3 -5 0 -13 -6 -15 -9 -4 -10 -6 -1 -6 17 -1 25 16 12 25
-7 4 -9 3 -5 -4z"/>
<path d="M5200 6061 c0 -6 4 -13 10 -16 6 -3 7 1 4 9 -7 18 -14 21 -14 7z"/>
<path d="M5390 5921 c0 -6 4 -13 10 -16 6 -3 7 1 4 9 -7 18 -14 21 -14 7z"/>
<path d="M1135 5560 c-3 -5 -1 -10 4 -10 6 0 11 5 11 10 0 6 -2 10 -4 10 -3 0
-8 -4 -11 -10z"/>
<path d="M6075 5090 c-3 -6 1 -7 9 -4 18 7 21 14 7 14 -6 0 -13 -4 -16 -10z"/>
<path d="M6235 4750 c-3 -5 -1 -10 4 -10 6 0 11 5 11 10 0 6 -2 10 -4 10 -3 0
-8 -4 -11 -10z"/>
<path d="M6420 3025 c-7 -9 -8 -15 -2 -15 5 0 12 7 16 15 3 8 4 15 2 15 -2 0
-9 -7 -16 -15z"/>
<path d="M490 2860 c0 -5 5 -10 11 -10 5 0 7 5 4 10 -3 6 -8 10 -11 10 -2 0
-4 -4 -4 -10z"/>
<path d="M6316 2627 c3 -10 9 -15 12 -12 3 3 0 11 -7 18 -10 9 -11 8 -5 -6z"/>
<path d="M6125 2180 c-3 -5 -1 -10 4 -10 6 0 11 5 11 10 0 6 -2 10 -4 10 -3 0
-8 -4 -11 -10z"/>
<path d="M6105 2131 c-3 -5 -2 -12 3 -15 5 -3 9 1 9 9 0 17 -3 19 -12 6z"/>
<path d="M1075 1680 c3 -5 8 -10 11 -10 2 0 4 5 4 10 0 6 -5 10 -11 10 -5 0
-7 -4 -4 -10z"/>
<path d="M5795 1680 c-3 -5 -1 -10 4 -10 6 0 11 5 11 10 0 6 -2 10 -4 10 -3 0
-8 -4 -11 -10z"/>
<path d="M5406 1274 c-5 -14 -4 -15 9 -4 17 14 19 20 6 20 -5 0 -12 -7 -15
-16z"/>
<path d="M2190 827 c0 -8 7 -14 15 -14 11 0 12 4 4 14 -6 7 -13 13 -15 13 -2
0 -4 -6 -4 -13z"/>
<path d="M2379 748 c15 -21 31 -23 31 -6 0 6 -3 8 -7 5 -3 -4 -13 -1 -22 6
-14 11 -14 10 -2 -5z"/>
<path d="M4190 645 c-14 -8 -20 -14 -14 -15 5 0 19 7 30 15 24 18 16 19 -16 0z"/>
</g>
</svg>
